<svg xmlns="http://www.w3.org/2000/svg" xmlns:xlink="http://www.w3.org/1999/xlink" viewBox="0,0,256,256" width="100px" height="100px"><g fill="none" fill-rule="nonzero" stroke="none" stroke-width="1" stroke-linecap="butt" stroke-linejoin="miter" stroke-miterlimit="10" stroke-dasharray="" stroke-dashoffset="0" font-family="none" font-weight="none" font-size="none" text-anchor="none" style="mix-blend-mode: normal"><g transform="scale(2.56,2.56)"><path d="M77,12c-0.55228,0 -1,0.44772 -1,1c0,0.55228 0.44772,1 1,1c0.55228,0 1,-0.44772 1,-1c0,-0.55228 -0.44772,-1 -1,-1z" fill="#f1bc19"></path><path d="M50,13c-20.43454,0 -37,16.56546 -37,37c0,20.43454 16.56546,37 37,37c20.43454,0 37,-16.56546 37,-37c0,-20.43454 -16.56546,-37 -37,-37z" fill="#20a9db"></path><path d="M83,11c-2.20914,0 -4,1.79086 -4,4c0,2.20914 1.79086,4 4,4c2.20914,0 4,-1.79086 4,-4c0,-2.20914 -1.79086,-4 -4,-4z" fill="#f1bc19"></path><path d="M87,22c-1.10457,0 -2,0.89543 -2,2c0,1.10457 0.89543,2 2,2c1.10457,0 2,-0.89543 2,-2c0,-1.10457 -0.89543,-2 -2,-2z" fill="#8889b9"></path><path d="M81,74c-1.10457,0 -2,0.89543 -2,2c0,1.10457 0.89543,2 2,2c1.10457,0 2,-0.89543 2,-2c0,-1.10457 -0.89543,-2 -2,-2zM15,59c-2.20914,0 -4,1.79086 -4,4c0,2.20914 1.79086,4 4,4c2.20914,0 4,-1.79086 4,-4c0,-2.20914 -1.79086,-4 -4,-4z" fill="#fbcd59"></path><path d="M25,85c-1.10457,0 -2,0.89543 -2,2c0,1.10457 0.89543,2 2,2c1.10457,0 2,-0.89543 2,-2c0,-1.10457 -0.89543,-2 -2,-2z" fill="#8889b9"></path><path d="M18.5,49c-1.38071,0 -2.5,1.11929 -2.5,2.5c0,1.38071 1.11929,2.5 2.5,2.5c1.38071,0 2.5,-1.11929 2.5,-2.5c0,-1.38071 -1.11929,-2.5 -2.5,-2.5zM79.5,32c-0.82843,0 -1.5,0.67157 -1.5,1.5c0,0.82843 0.67157,1.5 1.5,1.5c0.82843,0 1.5,-0.67157 1.5,-1.5c0,-0.82843 -0.67157,-1.5 -1.5,-1.5z" fill="#ffffff"></path><path d="M37.296,73.3c-2.535,0 -4.596,-2.065 -4.596,-4.605v-37.389c0,-2.54 2.062,-4.605 4.596,-4.605h19.132l11.872,11.892v30.102c0,2.54 -2.062,4.605 -4.596,4.605z" fill="#fefdef"></path><path d="M56.138,27.4l4.662,4.67l6.799,6.812v29.813c0,2.154 -1.748,3.906 -3.896,3.906h-26.407c-2.149,0 -3.896,-1.752 -3.896,-3.906v-37.389c0,-2.154 1.748,-3.906 3.896,-3.906h0.769h1.718h5.523h10.832M56.719,26h-11.412h-5.523h-1.718h-0.769c-2.914,0 -5.297,2.388 -5.297,5.306v37.389c0,2.918 2.384,5.305 5.296,5.305h26.406c2.913,0 5.296,-2.388 5.296,-5.306v-30.391h0.002c-4.776,-4.785 -7.505,-7.518 -12.281,-12.303z" fill="#472b29"></path><path d="M56.5,27v6.483c0,2.759 2.214,5.017 4.921,5.017h6.579" fill="#fef6aa"></path><path d="M68,39h-6.579c-2.989,0 -5.421,-2.475 -5.421,-5.517v-6.483h1v6.483c0,2.491 1.983,4.517 4.421,4.517h6.579zM63,71h-25c-1.654,0 -3,-1.346 -3,-3v-36c0,-1.654 1.346,-3 3,-3h2c0.276,0 0.5,0.224 0.5,0.5c0,0.276 -0.224,0.5 -0.5,0.5h-2c-1.103,0 -2,0.897 -2,2v36c0,1.103 0.897,2 2,2h25c1.103,0 2,-0.897 2,-2v-15.083c0,-0.276 0.224,-0.5 0.5,-0.5c0.276,0 0.5,0.224 0.5,0.5v15.083c0,1.654 -1.346,3 -3,3zM65.5,51c-0.276,0 -0.5,-0.224 -0.5,-0.5v-4c0,-0.276 0.224,-0.5 0.5,-0.5c0.276,0 0.5,0.224 0.5,0.5v4c0,0.276 -0.224,0.5 -0.5,0.5zM65.5,44.75c-0.276,0 -0.5,-0.224 -0.5,-0.5v-2.583c0,-0.276 0.224,-0.5 0.5,-0.5c0.276,0 0.5,0.224 0.5,0.5v2.583c0,0.276 -0.224,0.5 -0.5,0.5z" fill="#472b29"></path><path d="M49.5,43.75h-10c-0.138,0 -0.25,-0.112 -0.25,-0.25c0,-0.138 0.112,-0.25 0.25,-0.25h10c0.138,0 0.25,0.112 0.25,0.25c0,0.138 -0.112,0.25 -0.25,0.25z" fill="#472b29"></path><g fill="#472b29"><path d="M49.5,47.75h-10c-0.138,0 -0.25,-0.112 -0.25,-0.25c0,-0.138 0.112,-0.25 0.25,-0.25h10c0.138,0 0.25,0.112 0.25,0.25c0,0.138 -0.112,0.25 -0.25,0.25z"></path></g><g fill="#472b29"><path d="M49.5,51.75h-10c-0.138,0 -0.25,-0.112 -0.25,-0.25c0,-0.138 0.112,-0.25 0.25,-0.25h10c0.138,0 0.25,0.112 0.25,0.25c0,0.138 -0.112,0.25 -0.25,0.25z"></path></g><g fill="#472b29"><path d="M46.5,55.75h-7c-0.138,0 -0.25,-0.112 -0.25,-0.25c0,-0.138 0.112,-0.25 0.25,-0.25h7c0.138,0 0.25,0.112 0.25,0.25c0,0.138 -0.112,0.25 -0.25,0.25z"></path></g><g fill="#472b29"><path d="M49.5,59.75h-10c-0.138,0 -0.25,-0.112 -0.25,-0.25c0,-0.138 0.112,-0.25 0.25,-0.25h10c0.138,0 0.25,0.112 0.25,0.25c0,0.138 -0.112,0.25 -0.25,0.25z"></path></g><g fill="#472b29"><path d="M51.5,63.75h-12c-0.138,0 -0.25,-0.112 -0.25,-0.25c0,-0.138 0.112,-0.25 0.25,-0.25h12c0.138,0 0.25,0.112 0.25,0.25c0,0.138 -0.112,0.25 -0.25,0.25z"></path></g><g fill="#472b29"><path d="M61.5,63.75h-8c-0.138,0 -0.25,-0.112 -0.25,-0.25c0,-0.138 0.112,-0.25 0.25,-0.25h8c0.138,0 0.25,0.112 0.25,0.25c0,0.138 -0.112,0.25 -0.25,0.25z"></path></g><g fill="#472b29"><path d="M61.5,55.75h-13c-0.138,0 -0.25,-0.112 -0.25,-0.25c0,-0.138 0.112,-0.25 0.25,-0.25h13c0.138,0 0.25,0.112 0.25,0.25c0,0.138 -0.112,0.25 -0.25,0.25z"></path></g><g fill="#472b29"><path d="M61.5,59.75h-4c-0.138,0 -0.25,-0.112 -0.25,-0.25c0,-0.138 0.112,-0.25 0.25,-0.25h4c0.138,0 0.25,0.112 0.25,0.25c0,0.138 -0.112,0.25 -0.25,0.25z"></path></g><g fill="#472b29"><path d="M55.5,59.75h-4c-0.138,0 -0.25,-0.112 -0.25,-0.25c0,-0.138 0.112,-0.25 0.25,-0.25h4c0.138,0 0.25,0.112 0.25,0.25c0,0.138 -0.112,0.25 -0.25,0.25z"></path></g><g><path d="M52.5,53v-9.5h9v9h-5.5" fill="#fef6aa"></path><path d="M52.75,53h-0.5v-9.75h9.5v9.5h-5.75v-0.5h5.25v-8.5h-8.5z" fill="#472b29"></path></g></g></g></svg>